<?xml version="1.0" standalone="no"?>
<!DOCTYPE svg PUBLIC "-//W3C//DTD SVG 20010904//EN"
 "http://www.w3.org/TR/2001/REC-SVG-20010904/DTD/svg10.dtd">
<svg version="1.0" xmlns="http://www.w3.org/2000/svg"
 width="128.000000pt" height="128.000000pt" viewBox="0 0 128.000000 128.000000"
 preserveAspectRatio="xMidYMid meet">
<metadata>
Created by potrace 1.11, written by Peter Selinger 2001-2013
</metadata>
<g transform="translate(0.000000,128.000000) scale(0.100000,-0.100000)"
fill="#000000" stroke="none">
<path d="M549 1230 c-24 -16 -57 -50 -74 -75 -29 -44 -31 -45 -65 -38 -19 5
-71 8 -115 8 -95 0 -142 -23 -170 -81 -36 -76 -2 -214 80 -330 l33 -46 -36
-51 c-57 -85 -84 -155 -89 -232 -4 -61 -2 -74 19 -104 47 -70 133 -92 258 -66
l57 12 18 -34 c10 -19 36 -50 57 -69 22 -20 32 -34 23 -34 -8 0 -15 -4 -15 -9
0 -6 99 -10 235 -10 131 0 235 4 235 8 0 5 -51 9 -112 9 -62 0 -126 1 -143 1
l-30 1 33 26 c17 14 45 45 62 69 l29 43 53 -13 c119 -27 209 -4 256 66 21 30
23 43 20 104 -5 77 -32 144 -90 231 l-35 51 30 44 c56 82 89 166 95 240 4 61
2 73 -19 104 -13 19 -43 45 -67 56 -37 18 -55 20 -120 16 -42 -3 -88 -9 -102
-12 -20 -5 -28 -1 -42 22 -71 118 -176 155 -269 93z m121 -30 c15 0 72 -53 91
-84 l18 -30 -68 -33 -69 -33 -71 33 -71 33 27 42 c28 43 96 86 121 77 8 -3 17
-5 22 -5z m-274 -141 l23 -8 -18 -54 c-11 -30 -24 -85 -29 -121 -9 -53 -18
-76 -44 -106 -18 -21 -38 -40 -45 -43 -15 -7 -63 69 -91 146 -38 100 -25 164
39 191 31 13 127 10 165 -5z m664 1 c62 -33 64 -116 6 -234 -34 -69 -63 -114
-68 -105 -2 2 -20 22 -41 45 -27 29 -39 52 -43 84 -4 25 -16 80 -29 123 -12
43 -18 80 -13 83 14 9 100 20 135 17 18 -1 42 -7 53 -13z m-512 -59 l33 -17
-76 -56 c-83 -63 -82 -64 -50 45 18 64 21 64 93 28z m272 -13 c7 -24 15 -49
16 -57 2 -8 5 -25 9 -38 5 -20 -6 -15 -71 34 l-76 58 49 22 c26 13 51 23 54
23 3 0 12 -19 19 -42z m-114 -83 c35 -25 85 -65 111 -89 l47 -44 2 -83 c1 -46
0 -96 -3 -110 -5 -27 -92 -105 -181 -164 l-43 -28 -67 46 c-37 25 -88 66 -113
90 l-47 44 2 101 c1 92 3 103 26 127 22 24 190 154 199 155 2 0 32 -20 67 -45z
m-352 -237 c-1 -13 -3 -27 -3 -33 -1 -5 -8 1 -17 13 -12 18 -13 26 -4 37 16
19 27 11 24 -17z m595 18 c10 -11 10 -20 1 -36 -14 -26 -17 -24 -23 18 -6 34
3 41 22 18z m-584 -187 c12 -75 28 -145 40 -180 l14 -38 -50 -10 c-204 -44
-256 71 -131 287 l36 62 43 -43 c27 -28 44 -56 48 -78z m671 70 c38 -61 65
-128 71 -180 11 -93 -44 -137 -157 -126 -92 10 -91 8 -69 80 11 34 22 78 25
97 12 82 18 97 52 133 20 20 40 37 44 37 4 0 19 -19 34 -41z m-518 -170 l63
-48 -40 -20 c-61 -31 -68 -28 -87 37 -8 31 -18 65 -21 76 -6 22 -4 21 85 -45z
m327 40 c-14 -69 -37 -129 -51 -129 -8 0 -33 9 -55 21 l-41 20 73 55 c40 30
74 54 75 54 2 0 1 -10 -1 -21z m-132 -157 c76 -36 76 -39 14 -106 -53 -56
-108 -60 -164 -12 -15 13 -36 38 -46 54 l-17 30 67 35 c38 18 70 33 73 32 3 0
35 -16 73 -33z"/>
<path d="M738 789 c-10 -5 -13 -38 -13 -126 l1 -118 42 -3 42 -3 0 125 c0 69
-3 126 -7 127 -5 0 -18 2 -30 3 -12 1 -28 -1 -35 -5z"/>
<path d="M600 636 l0 -96 39 0 39 0 4 70 c5 101 0 114 -45 118 l-37 3 0 -95z"/>
<path d="M470 600 l0 -60 40 0 c22 0 40 3 41 8 0 4 2 31 3 60 l1 52 -42 0 -43
0 0 -60z"/>
<path d="M45 81 c-2 -5 103 -9 235 -9 132 -1 240 2 240 7 0 11 -468 12 -475 2z"/>
<path d="M1010 79 c0 -5 52 -8 115 -8 63 1 115 5 115 10 0 5 -52 8 -115 8 -63
-1 -115 -5 -115 -10z"/>
<path d="M58 32 c-10 -2 -18 -7 -18 -10 0 -6 15 -7 89 -3 8 1 11 4 7 8 -8 8
-50 11 -78 5z"/>
<path d="M198 28 c-21 -5 -21 -6 -3 -8 57 -5 896 -2 902 3 8 9 27 8 -459 10
-229 1 -427 -1 -440 -5z"/>
<path d="M1144 29 c-6 -10 38 -15 71 -8 31 7 24 10 -33 13 -18 1 -35 -1 -38
-5z"/>
</g>
</svg>
